<svg width="60" height="60" viewBox="0 0 60 60" fill="none" xmlns="http://www.w3.org/2000/svg">
<path d="M60 30C60 46.5685 46.5685 60 30 60C13.4315 60 0 46.5685 0 30C0 13.4315 13.4315 0 30 0C46.5685 0 60 13.4315 60 30Z" fill="black"/>
<path d="M58 30C58 45.464 45.464 58 30 58C14.536 58 2 45.464 2 30C2 14.536 14.536 2 30 2C45.464 2 58 14.536 58 30Z" fill="white"/>
<path d="M56 30C56 44.3594 44.3594 56 30 56C15.6406 56 4 44.3594 4 30C4 15.6406 15.6406 4 30 4C44.3594 4 56 15.6406 56 30Z" fill="black"/>
<path d="M44 30C44 37.732 37.732 44 30 44C22.268 44 16 37.732 16 30C16 22.268 22.268 16 30 16C37.732 16 44 22.268 44 30Z" fill="white"/>
<path d="M42 30C42 36.6274 36.6274 42 30 42C23.3726 42 18 36.6274 18 30C18 23.3726 23.3726 18 30 18C36.6274 18 42 23.3726 42 30Z" fill="black"/>
<path d="M40 30C40 35.5228 35.5228 40 30 40C24.4772 40 20 35.5228 20 30C20 24.4772 24.4772 20 30 20C35.5228 20 40 24.4772 40 30Z" fill="white"/>
<path d="M38 30C38 34.4183 34.4183 38 30 38C25.5817 38 22 34.4183 22 30C22 25.5817 25.5817 22 30 22C34.4183 22 38 25.5817 38 30Z" fill="black"/>
<path d="M36 30C36 33.3137 33.3137 36 30 36C26.6863 36 24 33.3137 24 30C24 26.6863 26.6863 24 30 24C33.3137 24 36 26.6863 36 30Z" fill="white"/>
<path d="M33 30C33 31.6569 31.6569 33 30 33C28.3431 33 27 31.6569 27 30C27 28.3431 28.3431 27 30 27C31.6569 27 33 28.3431 33 30Z" fill="black"/>
</svg>
